<svg width="526" height="524" viewBox="0 0 526 524" fill="none" xmlns="http://www.w3.org/2000/svg">
<path d="M20 162C78.6137 52.878 130.413 18.2806 263 13C395.587 18.2806 447.386 52.878 506 162C511.17 182.594 506.928 189.656 491 197C506.936 207.597 511.469 215.848 513 234C511.557 257.576 506.135 264.149 491 268H477V330C501.59 331.924 510.06 339.522 513 368C508.807 395.331 502.057 404.562 477 403C482.4 437.355 479.939 454.257 456 476C431.414 500.678 413.274 507.132 377 512H263H149C112.726 507.132 94.5862 500.678 70 476C46.0608 454.257 43.6 437.355 49 403C23.9433 404.562 17.1934 395.331 13 368C15.9401 339.522 24.4103 331.924 49 330V268H35C19.8648 264.149 14.4429 257.576 13 234C14.531 215.848 19.0638 207.597 35 197C19.072 189.656 14.8298 182.594 20 162Z" fill="black" stroke="#00FF19" stroke-width="24"/>
</svg>
